<svg width="40" height="40" viewBox="0 0 40 40" fill="none" xmlns="http://www.w3.org/2000/svg">
<path d="M20.0033 35.0683C15.9033 35.0683 15.42 35.0466 13.82 34.9766C12.5723 34.9356 11.3407 34.682 10.1783 34.2266C8.16718 33.444 6.57689 31.8531 5.79499 29.8416C5.35717 28.675 5.12102 27.4424 5.09666 26.1966C5.00333 24.6 5.00333 24.0766 5.00333 20.0083C5.00333 15.8966 5.02499 15.4166 5.09666 13.825C5.12156 12.5808 5.3577 11.35 5.79499 10.185C6.57605 8.17085 8.16891 6.57859 10.1833 5.7983C11.3477 5.35864 12.5789 5.12187 13.8233 5.0983C15.415 5.0083 15.9383 5.0083 20.0033 5.0083C24.1367 5.0083 24.6117 5.02997 26.1867 5.0983C27.4343 5.12208 28.6687 5.35882 29.8367 5.7983C31.8505 6.57947 33.4431 8.17143 34.225 10.185C34.6702 11.367 34.9076 12.6171 34.9267 13.88C35.02 15.4766 35.02 15.9983 35.02 20.065C35.02 24.1316 34.9967 24.665 34.9267 26.2433C34.9018 27.4903 34.6651 28.724 34.2267 29.8916C33.4428 31.9045 31.8501 33.4959 29.8367 34.2783C28.6704 34.7153 27.4385 34.9514 26.1933 34.9766C24.6017 35.0683 24.08 35.0683 20.0033 35.0683ZM19.9467 7.64663C15.87 7.64663 15.4467 7.66663 13.855 7.7383C12.905 7.75089 11.9641 7.9262 11.0733 8.25663C9.75791 8.75998 8.71704 9.79662 8.20833 11.11C7.87535 12.0105 7.70001 12.9616 7.68999 13.9216C7.60166 15.5366 7.60166 15.96 7.60166 20.0083C7.60166 24.0083 7.61666 24.4933 7.68999 26.0983C7.70491 27.0486 7.88015 27.9896 8.20833 28.8816C8.71779 30.1941 9.75848 31.23 11.0733 31.7333C11.9635 32.0659 12.9047 32.2413 13.855 32.2516C15.4683 32.345 15.8933 32.345 19.9467 32.345C24.035 32.345 24.4583 32.325 26.0367 32.2516C26.9873 32.2401 27.9289 32.0647 28.82 31.7333C30.1274 31.2256 31.1615 30.1921 31.67 28.885C32.0023 27.9837 32.1776 27.0321 32.1883 26.0716H32.2067C32.2783 24.4783 32.2783 24.0533 32.2783 19.9816C32.2783 15.91 32.26 15.4816 32.1883 13.89C32.1734 12.9407 31.9981 12.0008 31.67 11.11C31.1627 9.80092 30.1284 8.76545 28.82 8.25663C27.9291 7.92454 26.9874 7.74917 26.0367 7.7383C24.425 7.64663 24.0033 7.64663 19.9467 7.64663ZM20.0033 27.7066C16.8866 27.7087 14.0757 25.8329 12.8814 22.9541C11.6872 20.0753 12.3448 16.7605 14.5477 14.5557C16.7506 12.351 20.0648 11.6904 22.9446 12.8822C25.8244 14.074 27.7027 16.8833 27.7033 20C27.6987 24.2517 24.2551 27.6984 20.0033 27.7066ZM20.0033 14.9966C17.2419 14.9966 15.0033 17.2352 15.0033 19.9966C15.0033 22.7581 17.2419 24.9966 20.0033 24.9966C22.7647 24.9966 25.0033 22.7581 25.0033 19.9966C24.9969 17.2379 22.7621 15.003 20.0033 14.9966ZM28.0033 13.8083C27.0124 13.8046 26.2115 12.9993 26.2133 12.0083C26.2152 11.0173 27.019 10.215 28.01 10.215C29.001 10.215 29.8048 11.0173 29.8067 12.0083C29.8071 12.4864 29.6171 12.945 29.2788 13.2828C28.9404 13.6205 28.4814 13.8096 28.0033 13.8083Z" fill="#1D1D1F"/>
</svg>
