<svg width="40" height="40" viewBox="0 0 40 40" fill="none" xmlns="http://www.w3.org/2000/svg">
<path fill-rule="evenodd" clip-rule="evenodd" d="M4.54486 19.365C12.92 15.6394 18.5048 13.1832 21.2991 11.9965C29.2776 8.60822 30.9354 8.01964 32.016 8.00021C32.2536 7.99593 32.785 8.05607 33.1292 8.34125C33.4199 8.58204 33.4998 8.90733 33.5381 9.13563C33.5764 9.36393 33.624 9.88401 33.5862 10.2904C33.1538 14.9287 31.283 26.1846 30.3313 31.3796C29.9285 33.5777 29.1356 34.3148 28.3679 34.3869C26.6995 34.5437 25.4326 33.2612 23.8167 32.1797C21.2882 30.4873 19.8597 29.4338 17.4053 27.7824C14.5689 25.8739 16.4076 24.825 18.0241 23.1107C18.4472 22.6621 25.798 15.8353 25.9403 15.216C25.9581 15.1386 25.9746 14.8499 25.8066 14.6974C25.6386 14.545 25.3907 14.5971 25.2118 14.6386C24.9582 14.6973 20.9188 17.4234 13.0936 22.8166C11.947 23.6205 10.9085 24.0122 9.97803 23.9917C8.95225 23.969 6.97906 23.3995 5.51219 22.9126C3.71301 22.3155 2.28307 21.9998 2.40758 20.9857C2.47244 20.4574 3.18486 19.9172 4.54486 19.365Z" fill="#1D1D1F"/>
</svg>
