<svg width="40" height="40" viewBox="0 0 40 40" fill="none" xmlns="http://www.w3.org/2000/svg">
<path fill-rule="evenodd" clip-rule="evenodd" d="M8.6992 11H5.2C4.2 11 4 11.4704 4 11.9904C4 12.9168 5.1856 17.5152 9.5248 23.5952C12.416 27.7488 16.4912 30 20.1984 30C22.424 30 22.6992 29.4992 22.6992 28.64V25.5008C22.6992 24.5008 22.9104 24.3008 23.6144 24.3008C24.1344 24.3008 25.0224 24.56 27.1008 26.5616C29.4736 28.936 29.864 30 31.1984 30H34.6992C35.6992 30 36.2 29.4992 35.9104 28.512C35.5952 27.5296 34.4624 26.1024 32.9584 24.4112C32.1424 23.448 30.92 22.4096 30.5488 21.8896C30.0288 21.2224 30.1776 20.9264 30.5488 20.3328C30.5488 20.3328 34.8128 14.3264 35.2576 12.2864C35.4816 11.5456 35.2576 11 34.1984 11H30.6992C29.8096 11 29.3984 11.4704 29.176 11.9904C29.176 11.9904 27.3968 16.328 24.8752 19.1456C24.0592 19.9616 23.688 20.2224 23.2432 20.2224C23.0208 20.2224 22.6992 19.9616 22.6992 19.2208V12.2864C22.6992 11.3968 22.4416 11 21.6992 11H16.1984C15.6432 11 15.3088 11.4128 15.3088 11.8048C15.3088 12.648 16.5696 12.8432 16.6992 15.216V20.3696C16.6992 21.5008 16.496 21.7056 16.0496 21.7056C14.864 21.7056 11.9776 17.3472 10.2656 12.3616C9.9296 11.392 9.5936 11 8.6992 11Z" fill="#1D1D1F"/>
</svg>
