<svg width="40" height="40" viewBox="0 0 40 40" fill="none" xmlns="http://www.w3.org/2000/svg">
<path d="M20.01 31.6866H19.9767C19.8733 31.6866 9.53499 31.6666 6.92665 30.9583C5.49236 30.5719 4.37224 29.4511 3.98665 28.0166C3.51762 25.3705 3.29112 22.6872 3.30999 19.9999C3.29787 17.3083 3.53049 14.6211 4.00499 11.9716C4.40117 10.5358 5.51637 9.40983 6.94832 8.99992C9.48499 8.33325 19.5383 8.33325 19.965 8.33325H20C20.105 8.33325 30.47 8.35325 33.0517 9.06159C34.4829 9.44993 35.6008 10.5684 35.9883 11.9999C36.4723 14.6558 36.6994 17.3521 36.6667 20.0516C36.6783 22.74 36.4451 25.4238 35.97 28.0699C35.5794 29.5027 34.4586 30.6209 33.025 31.0083C30.4917 31.6799 20.4367 31.6866 20.01 31.6866ZM16.6767 15.0083L16.6683 25.0083L25.355 20.0083L16.6767 15.0083Z" fill="#1D1D1F"/>
</svg>
